<svg xmlns="http://www.w3.org/2000/svg" width="420" height="196" viewBox="0 0 420 196" role="img"><rect x="0.5" y="0.5" width="419" height="195" rx="4" fill="#0B2545" stroke="#1E3A5F" stroke-width="1"/><text x="20" y="32" font-family="'IBM Plex Sans','Segoe UI',system-ui,-apple-system,Helvetica,Arial,sans-serif" font-size="15" font-weight="600" fill="#FFFFFF">Public code by language</text><line x1="20" y1="44" x2="400" y2="44" stroke="#1E3A5F" stroke-width="1"/><rect x="20.00" y="62" width="207.98" height="8" fill="#D9E2EC"/><rect x="227.98" y="62" width="156.66" height="8" fill="#B8CAD9"/><rect x="384.64" y="62" width="11.38" height="8" fill="#8DA9C4"/><rect x="396.02" y="62" width="2.54" height="8" fill="#6590B8"/><rect x="398.56" y="62" width="1.44" height="8" fill="#3C6997"/><rect x="20" y="89" width="7" height="7" fill="#D9E2EC"/><text x="33" y="96" font-family="'IBM Plex Sans','Segoe UI',system-ui,-apple-system,Helvetica,Arial,sans-serif" font-size="11.5" fill="#B8CAD9">Python</text><text x="202" y="96" font-family="'IBM Plex Mono','Consolas',Menlo,monospace" font-size="11.5" text-anchor="end" fill="#FFFFFF">54.7%</text><rect x="214" y="89" width="7" height="7" fill="#B8CAD9"/><text x="227" y="96" font-family="'IBM Plex Sans','Segoe UI',system-ui,-apple-system,Helvetica,Arial,sans-serif" font-size="11.5" fill="#B8CAD9">HTML</text><text x="396" y="96" font-family="'IBM Plex Mono','Consolas',Menlo,monospace" font-size="11.5" text-anchor="end" fill="#FFFFFF">41.2%</text><rect x="20" y="109" width="7" height="7" fill="#8DA9C4"/><text x="33" y="116" font-family="'IBM Plex Sans','Segoe UI',system-ui,-apple-system,Helvetica,Arial,sans-serif" font-size="11.5" fill="#B8CAD9">Jupyter Notebook</text><text x="202" y="116" font-family="'IBM Plex Mono','Consolas',Menlo,monospace" font-size="11.5" text-anchor="end" fill="#FFFFFF">3.0%</text><rect x="214" y="109" width="7" height="7" fill="#6590B8"/><text x="227" y="116" font-family="'IBM Plex Sans','Segoe UI',system-ui,-apple-system,Helvetica,Arial,sans-serif" font-size="11.5" fill="#B8CAD9">JavaScript</text><text x="396" y="116" font-family="'IBM Plex Mono','Consolas',Menlo,monospace" font-size="11.5" text-anchor="end" fill="#FFFFFF">0.7%</text><rect x="20" y="129" width="7" height="7" fill="#3C6997"/><text x="33" y="136" font-family="'IBM Plex Sans','Segoe UI',system-ui,-apple-system,Helvetica,Arial,sans-serif" font-size="11.5" fill="#B8CAD9">CSS</text><text x="202" y="136" font-family="'IBM Plex Mono','Consolas',Menlo,monospace" font-size="11.5" text-anchor="end" fill="#FFFFFF">0.4%</text><text x="20" y="180" font-family="'IBM Plex Sans','Segoe UI',system-ui,-apple-system,Helvetica,Arial,sans-serif" font-size="9" fill="#8DA9C4">Source: GitHub API, bytes across public repositories. Updated 12 Aug 2026.</text></svg>